<?xml version="1.0" encoding="UTF-8"?>
<svg xmlns="http://www.w3.org/2000/svg" xmlns:xlink="http://www.w3.org/1999/xlink" width="486px" height="144px" viewBox="0 0 485 144" version="1.1">
<g id="surface1">
<path style=" stroke:none;fill-rule:nonzero;fill:rgb(100%,34.117647%,13.333333%);fill-opacity:1;" d="M 75.40625 21.128906 C 44.9375 21.128906 20.238281 45.863281 20.238281 76.375 C 20.238281 106.882812 44.9375 131.617188 75.40625 131.617188 C 105.875 131.617188 130.574219 106.882812 130.574219 76.375 C 130.539062 45.878906 105.859375 21.164062 75.40625 21.128906 Z M 75.40625 127.933594 C 46.96875 127.933594 23.917969 104.847656 23.917969 76.375 C 23.917969 47.898438 46.96875 24.816406 75.40625 24.816406 C 103.839844 24.816406 126.890625 47.898438 126.890625 76.375 C 126.859375 104.835938 103.828125 127.898438 75.40625 127.933594 Z M 75.40625 127.933594 "/>
<path style=" stroke:none;fill-rule:nonzero;fill:rgb(100%,34.117647%,13.333333%);fill-opacity:1;" d="M 75.40625 28.496094 C 49 28.496094 27.59375 49.933594 27.59375 76.375 C 27.59375 102.8125 49 124.25 75.40625 124.25 C 101.808594 124.25 123.214844 102.8125 123.214844 76.375 C 123.1875 49.945312 101.796875 28.527344 75.40625 28.496094 Z M 75.40625 120.566406 C 51.03125 120.566406 31.273438 100.78125 31.273438 76.375 C 31.273438 51.964844 51.03125 32.179688 75.40625 32.179688 C 99.777344 32.179688 119.539062 51.964844 119.539062 76.375 C 119.507812 100.769531 99.765625 120.539062 75.40625 120.566406 Z M 75.40625 120.566406 "/>
<path style=" stroke:none;fill-rule:nonzero;fill:rgb(100%,34.117647%,13.333333%);fill-opacity:1;" d="M 33.109375 74.53125 L 40.464844 74.53125 L 40.464844 78.214844 L 33.109375 78.214844 Z M 33.109375 74.53125 "/>
<path style=" stroke:none;fill-rule:nonzero;fill:rgb(100%,34.117647%,13.333333%);fill-opacity:1;" d="M 110.34375 74.53125 L 117.699219 74.53125 L 117.699219 78.214844 L 110.34375 78.214844 Z M 110.34375 74.53125 "/>
<path style=" stroke:none;fill-rule:nonzero;fill:rgb(100%,34.117647%,13.333333%);fill-opacity:1;" d="M 37.855469 95.953125 L 44.226562 92.273438 L 46.066406 95.464844 L 39.695312 99.144531 Z M 37.855469 95.953125 "/>
<path style=" stroke:none;fill-rule:nonzero;fill:rgb(100%,34.117647%,13.333333%);fill-opacity:1;" d="M 104.742188 57.285156 L 111.117188 53.601562 L 112.953125 56.792969 L 106.582031 60.476562 Z M 104.742188 57.285156 "/>
<path style=" stroke:none;fill-rule:nonzero;fill:rgb(100%,34.117647%,13.333333%);fill-opacity:1;" d="M 37.855469 56.792969 L 39.695312 53.601562 L 46.066406 57.285156 L 44.226562 60.476562 Z M 37.855469 56.792969 "/>
<path style=" stroke:none;fill-rule:nonzero;fill:rgb(100%,34.117647%,13.333333%);fill-opacity:1;" d="M 104.742188 95.464844 L 106.582031 92.273438 L 112.953125 95.957031 L 111.117188 99.148438 Z M 104.742188 95.464844 "/>
<path style=" stroke:none;fill-rule:nonzero;fill:rgb(100%,34.117647%,13.333333%);fill-opacity:1;" d="M 52.664062 40.613281 L 55.851562 38.773438 L 59.527344 45.152344 L 56.339844 46.992188 Z M 52.664062 40.613281 "/>
<path style=" stroke:none;fill-rule:nonzero;fill:rgb(100%,34.117647%,13.333333%);fill-opacity:1;" d="M 73.566406 34.019531 L 77.242188 34.019531 L 77.242188 41.386719 L 73.566406 41.386719 Z M 73.566406 34.019531 "/>
<path style=" stroke:none;fill-rule:nonzero;fill:rgb(100%,34.117647%,13.333333%);fill-opacity:1;" d="M 91.28125 45.152344 L 94.957031 38.773438 L 98.144531 40.613281 L 94.46875 46.992188 Z M 91.28125 45.152344 "/>
<path style=" stroke:none;fill-rule:nonzero;fill:rgb(100%,34.117647%,13.333333%);fill-opacity:1;" d="M 34.074219 67.1875 L 35.027344 63.632812 L 40.355469 65.0625 L 39.402344 68.617188 Z M 34.074219 67.1875 "/>
<path style=" stroke:none;fill-rule:nonzero;fill:rgb(100%,34.117647%,13.333333%);fill-opacity:1;" d="M 110.453125 87.683594 L 111.402344 84.128906 L 116.734375 85.558594 L 115.78125 89.117188 Z M 110.453125 87.683594 "/>
<path style=" stroke:none;fill-rule:nonzero;fill:rgb(100%,34.117647%,13.333333%);fill-opacity:1;" d="M 44.199219 47.726562 L 46.796875 45.125 L 50.699219 49.027344 L 48.097656 51.636719 Z M 44.199219 47.726562 "/>
<path style=" stroke:none;fill-rule:nonzero;fill:rgb(100%,34.117647%,13.333333%);fill-opacity:1;" d="M 62.679688 35.941406 L 66.230469 34.988281 L 67.660156 40.328125 L 64.109375 41.277344 Z M 62.679688 35.941406 "/>
<path style=" stroke:none;fill-rule:nonzero;fill:rgb(100%,34.117647%,13.333333%);fill-opacity:1;" d="M 83.148438 40.328125 L 84.574219 34.988281 L 88.128906 35.941406 L 86.703125 41.277344 Z M 83.148438 40.328125 "/>
<path style=" stroke:none;fill-rule:nonzero;fill:rgb(100%,34.117647%,13.333333%);fill-opacity:1;" d="M 100.109375 49.027344 L 104.011719 45.125 L 106.613281 47.726562 L 102.710938 51.632812 Z M 100.109375 49.027344 "/>
<path style=" stroke:none;fill-rule:nonzero;fill:rgb(100%,34.117647%,13.333333%);fill-opacity:1;" d="M 110.453125 65.0625 L 115.78125 63.632812 L 116.734375 67.191406 L 111.402344 68.617188 Z M 110.453125 65.0625 "/>
<path style=" stroke:none;fill-rule:nonzero;fill:rgb(100%,34.117647%,13.333333%);fill-opacity:1;" d="M 34.074219 85.554688 L 39.40625 84.128906 L 40.355469 87.683594 L 35.027344 89.113281 Z M 34.074219 85.554688 "/>
<path style=" stroke:none;fill-rule:nonzero;fill:rgb(100%,34.117647%,13.333333%);fill-opacity:1;" d="M 105.683594 84.199219 C 109.199219 70.515625 103.132812 56.167969 90.871094 49.183594 C 78.605469 42.195312 63.191406 44.300781 53.242188 54.316406 C 43.292969 64.335938 41.28125 79.785156 48.328125 92.027344 C 48.847656 92.871094 49.949219 93.148438 50.8125 92.652344 C 51.671875 92.152344 51.980469 91.058594 51.511719 90.183594 C 45.292969 79.382812 47.070312 65.75 55.851562 56.914062 C 64.628906 48.074219 78.230469 46.21875 89.050781 52.382812 C 99.871094 58.550781 105.226562 71.210938 102.121094 83.28125 C 101.863281 84.269531 102.457031 85.273438 103.441406 85.527344 C 104.425781 85.78125 105.429688 85.1875 105.683594 84.203125 Z M 105.683594 84.199219 "/>
<path style=" stroke:none;fill-rule:nonzero;fill:rgb(100%,34.117647%,13.333333%);fill-opacity:1;" d="M 82.085938 73.105469 C 82.03125 73.070312 81.972656 73.042969 81.914062 73.015625 C 80.292969 69.847656 76.644531 68.296875 73.242188 69.335938 C 69.84375 70.375 67.679688 73.703125 68.101562 77.234375 C 68.523438 80.769531 71.414062 83.492188 74.964844 83.695312 L 100.523438 92.835938 C 100.726562 92.910156 100.9375 92.949219 101.148438 92.945312 C 101.925781 92.945312 102.621094 92.457031 102.882812 91.722656 C 103.144531 90.988281 102.914062 90.171875 102.3125 89.679688 Z M 71.726562 76.375 C 71.726562 74.339844 73.375 72.691406 75.40625 72.691406 C 77.433594 72.691406 79.082031 74.339844 79.082031 76.375 C 79.082031 78.410156 77.433594 80.058594 75.40625 80.058594 C 73.375 80.058594 71.726562 78.410156 71.726562 76.375 Z M 80.414062 81.734375 C 81.433594 80.78125 82.15625 79.558594 82.5 78.207031 L 91.769531 85.792969 Z M 80.414062 81.734375 "/>
<path style=" stroke:none;fill-rule:nonzero;fill:rgb(100%,34.117647%,13.333333%);fill-opacity:1;" d="M 82.757812 94.789062 L 68.050781 94.789062 C 62.972656 94.789062 58.855469 98.910156 58.855469 103.996094 C 58.855469 109.082031 62.972656 113.199219 68.050781 113.199219 L 82.757812 113.199219 C 87.835938 113.199219 91.957031 109.082031 91.957031 103.996094 C 91.957031 98.910156 87.835938 94.789062 82.757812 94.789062 Z M 82.757812 109.519531 L 68.050781 109.519531 C 65.003906 109.519531 62.53125 107.046875 62.53125 103.996094 C 62.53125 100.945312 65.003906 98.46875 68.050781 98.46875 L 82.757812 98.46875 C 85.808594 98.46875 88.277344 100.945312 88.277344 103.996094 C 88.277344 107.046875 85.808594 109.519531 82.757812 109.519531 Z M 82.757812 109.519531 "/>
<path style=" stroke:none;fill-rule:nonzero;fill:rgb(100%,34.117647%,13.333333%);fill-opacity:1;" d="M 71.726562 102.152344 L 68.050781 102.152344 C 67.03125 102.152344 66.210938 102.980469 66.210938 103.996094 C 66.210938 105.011719 67.03125 105.835938 68.050781 105.835938 L 71.726562 105.835938 C 72.742188 105.835938 73.566406 105.011719 73.566406 103.996094 C 73.566406 102.980469 72.742188 102.152344 71.726562 102.152344 Z M 71.726562 102.152344 "/>
<path style=" stroke:none;fill-rule:nonzero;fill:rgb(100%,34.117647%,13.333333%);fill-opacity:1;" d="M 82.757812 102.152344 L 79.082031 102.152344 C 78.066406 102.152344 77.242188 102.980469 77.242188 103.996094 C 77.242188 105.011719 78.066406 105.835938 79.082031 105.835938 L 82.757812 105.835938 C 83.777344 105.835938 84.597656 105.011719 84.597656 103.996094 C 84.597656 102.980469 83.777344 102.152344 82.757812 102.152344 Z M 82.757812 102.152344 "/>
<path style=" stroke:none;fill-rule:nonzero;fill:rgb(93.333333%,93.333333%,93.333333%);fill-opacity:1;" d="M 160.203125 80.058594 L 172.308594 71.976562 L 172.308594 89.09375 L 168.742188 89.09375 L 168.742188 78.648438 L 160.203125 84.351562 L 151.664062 78.648438 L 151.664062 89.09375 L 148.09375 89.09375 L 148.09375 71.976562 Z M 201.601562 75.324219 L 180.953125 75.324219 L 180.953125 78.652344 L 194.726562 78.703125 L 194.714844 82.273438 L 180.953125 82.226562 L 180.953125 85.539062 L 201.601562 85.539062 L 201.601562 89.109375 L 177.386719 89.109375 L 177.386719 71.753906 L 201.601562 71.753906 L 201.601562 75.328125 Z M 228.347656 85.519531 L 228.410156 89.054688 L 226.644531 89.085938 C 226.621094 89.085938 225.082031 89.109375 222.070312 89.109375 C 220.546875 89.109375 218.648438 89.101562 216.375 89.085938 C 212.707031 89.050781 209.773438 88.257812 207.664062 86.726562 C 205.558594 85.207031 204.402344 82.992188 204.402344 80.492188 C 204.402344 77.992188 205.570312 75.777344 207.691406 74.242188 C 209.789062 72.722656 212.796875 71.910156 216.382812 71.898438 C 223.132812 71.875 226.589844 71.898438 226.625 71.898438 L 228.390625 71.914062 L 228.363281 75.449219 L 226.597656 75.4375 C 226.5625 75.4375 223.121094 75.410156 216.398438 75.4375 C 211.175781 75.453125 207.933594 77.390625 207.933594 80.492188 C 207.933594 81.863281 208.539062 82.996094 209.730469 83.863281 C 211.21875 84.941406 213.527344 85.523438 216.40625 85.546875 C 223.113281 85.605469 226.546875 85.546875 226.582031 85.546875 Z M 245.917969 70.851562 L 259.863281 89.398438 L 255.378906 89.398438 L 251.476562 84.230469 L 240.359375 84.230469 L 236.515625 89.398438 L 232.082031 89.398438 Z M 243.03125 80.660156 L 248.804688 80.660156 L 245.917969 76.804688 Z M 284.183594 71.738281 L 287.75 71.738281 L 287.75 88.855469 L 267.097656 78.054688 L 267.097656 89.09375 L 263.535156 89.09375 L 263.535156 71.976562 L 284.183594 82.777344 Z M 296.359375 89.132812 L 292.824219 89.132812 L 292.824219 71.945312 L 296.359375 71.945312 Z M 325.402344 85.519531 L 325.464844 89.054688 L 323.695312 89.085938 C 323.675781 89.085938 322.136719 89.109375 319.128906 89.109375 C 317.605469 89.109375 315.703125 89.101562 313.429688 89.085938 C 309.765625 89.050781 306.832031 88.257812 304.714844 86.726562 C 302.617188 85.207031 301.457031 82.992188 301.457031 80.492188 C 301.457031 77.992188 302.625 75.777344 304.746094 74.242188 C 306.847656 72.722656 309.851562 71.910156 313.4375 71.898438 C 320.1875 71.875 323.648438 71.898438 323.683594 71.898438 L 325.449219 71.914062 L 325.421875 75.449219 L 323.652344 75.4375 C 323.621094 75.4375 320.175781 75.410156 313.453125 75.4375 C 308.230469 75.453125 304.988281 77.390625 304.988281 80.492188 C 304.988281 81.863281 305.59375 82.996094 306.789062 83.863281 C 308.277344 84.941406 310.582031 85.523438 313.460938 85.546875 C 320.167969 85.605469 323.601562 85.546875 323.636719 85.546875 Z M 342.976562 70.851562 L 356.917969 89.398438 L 352.433594 89.398438 L 348.535156 84.230469 L 337.414062 84.230469 L 333.574219 89.398438 L 329.140625 89.398438 Z M 340.089844 80.660156 L 345.859375 80.660156 L 342.976562 76.804688 Z M 382.359375 85.375 L 384.125 85.351562 L 384.179688 88.886719 L 382.410156 88.914062 C 382.136719 88.917969 381.824219 88.921875 381.484375 88.921875 C 379.03125 88.921875 375.101562 88.675781 372.617188 86.226562 C 371.511719 85.136719 370.8125 83.746094 370.535156 82.085938 L 364.148438 82.085938 L 364.121094 88.917969 L 360.589844 88.90625 L 360.644531 73.5 L 360.644531 71.730469 L 360.652344 71.730469 L 360.652344 71.71875 L 362.417969 71.730469 L 379.054688 71.730469 C 381.292969 71.730469 384.621094 73.105469 384.621094 76.90625 C 384.621094 80.707031 381.527344 82.089844 379.449219 82.089844 L 374.15625 82.089844 C 374.347656 82.734375 374.65625 83.273438 375.097656 83.707031 C 376.871094 85.457031 380.578125 85.402344 382.355469 85.375 Z M 364.179688 78.550781 L 379.4375 78.550781 C 379.589844 78.546875 380.046875 78.488281 380.425781 78.277344 C 380.757812 78.097656 381.09375 77.789062 381.09375 76.90625 C 381.09375 76.195312 380.851562 75.8125 380.234375 75.535156 C 379.675781 75.285156 379.0625 75.261719 379.054688 75.261719 L 364.179688 75.261719 Z M 411.5 85.375 L 413.265625 85.351562 L 413.316406 88.886719 L 411.550781 88.914062 C 411.277344 88.917969 410.964844 88.921875 410.628906 88.921875 C 408.175781 88.921875 404.242188 88.675781 401.757812 86.226562 C 400.652344 85.136719 399.953125 83.746094 399.675781 82.085938 L 393.285156 82.085938 L 393.261719 88.917969 L 389.730469 88.90625 L 389.789062 73.5 L 389.789062 71.730469 L 389.792969 71.730469 L 389.792969 71.71875 L 391.558594 71.730469 L 408.195312 71.730469 C 410.433594 71.730469 413.765625 73.105469 413.765625 76.90625 C 413.765625 80.707031 410.667969 82.089844 408.589844 82.089844 L 403.296875 82.089844 C 403.488281 82.734375 403.796875 83.273438 404.234375 83.707031 C 406.011719 85.457031 409.71875 85.402344 411.5 85.375 Z M 393.316406 78.550781 L 408.574219 78.550781 C 408.730469 78.546875 409.1875 78.488281 409.570312 78.277344 C 409.898438 78.097656 410.234375 77.789062 410.234375 76.90625 C 410.234375 76.195312 409.992188 75.8125 409.375 75.535156 C 408.816406 75.285156 408.203125 75.261719 408.199219 75.261719 L 393.320312 75.261719 L 393.320312 78.550781 Z M 441.5625 73.347656 C 442.957031 74.730469 442.945312 76.730469 442.929688 79.761719 C 442.929688 79.988281 442.925781 80.222656 442.925781 80.464844 C 442.921875 82.261719 442.914062 83.5625 442.726562 84.65625 C 442.5625 85.589844 442.195312 86.941406 440.835938 87.847656 C 439.117188 88.996094 436.546875 89.019531 430.917969 89.074219 C 430.039062 89.085938 429.230469 89.09375 428.480469 89.09375 C 424.019531 89.09375 421.777344 88.855469 420.34375 87.429688 C 418.851562 85.945312 418.863281 83.757812 418.875 80.449219 C 418.886719 76.757812 418.898438 74.53125 420.765625 73.144531 C 422.378906 71.953125 424.71875 71.921875 429.851562 71.851562 L 430.875 71.839844 C 437.269531 71.746094 439.917969 71.707031 441.5625 73.347656 Z M 439.382812 79.742188 C 439.394531 78.003906 439.40625 76.199219 439.070312 75.863281 C 438.648438 75.449219 436.773438 75.351562 434.269531 75.351562 C 433.242188 75.351562 432.105469 75.367188 430.921875 75.386719 L 429.898438 75.402344 C 426.222656 75.449219 423.566406 75.484375 422.871094 76 C 422.429688 76.324219 422.425781 78.242188 422.414062 80.464844 C 422.410156 82.527344 422.402344 84.476562 422.84375 84.914062 C 423.535156 85.601562 427.269531 85.566406 430.882812 85.53125 C 435.03125 85.488281 438.023438 85.457031 438.871094 84.894531 C 439.367188 84.5625 439.371094 82.835938 439.382812 80.453125 C 439.382812 80.207031 439.382812 79.96875 439.382812 79.742188 Z M 452.25 75.40625 C 451.917969 75.589844 451.578125 75.898438 451.578125 76.792969 C 451.578125 77.488281 451.804688 77.867188 452.382812 78.144531 C 452.964844 78.429688 453.613281 78.449219 453.644531 78.449219 L 466.613281 78.503906 C 468.863281 78.503906 472.226562 79.894531 472.226562 83.734375 C 472.226562 87.574219 469.101562 88.964844 467 88.964844 L 448.011719 88.964844 L 448.011719 85.394531 L 466.984375 85.394531 C 467.140625 85.386719 467.605469 85.328125 467.988281 85.117188 C 468.320312 84.933594 468.65625 84.625 468.65625 83.734375 C 468.65625 83.039062 468.433594 82.65625 467.859375 82.378906 C 467.277344 82.09375 466.625 82.074219 466.589844 82.070312 L 453.632812 82.015625 L 453.632812 82.023438 C 451.375 82.023438 448.011719 80.628906 448.011719 76.792969 C 448.011719 72.953125 451.136719 71.558594 453.238281 71.558594 L 472.226562 71.558594 L 472.226562 75.128906 L 453.25 75.128906 C 453.097656 75.136719 452.632812 75.195312 452.25 75.40625 Z M 452.25 75.40625 "/>
</g>
</svg>
