<svg xmlns="http://www.w3.org/2000/svg" xmlns:xlink="http://www.w3.org/1999/xlink" version="1.1" width="1000" height="1000" viewBox="0 0 1000 1000" xml:space="preserve">
<desc>Created with Fabric.js 3.5.0</desc>
<defs>
</defs>
<rect x="0" y="0" width="100%" height="100%" fill="#ffffff"/>
<g transform="matrix(0.2555 0 0 0.2555 403.9597 471.4714)" id="945691">
<g style="" vector-effect="non-scaling-stroke">
		<g transform="matrix(12.0075 0 0 12.0075 -1091.1417 28.3701)" id="SvgjsG2743">
<path style="stroke: none; stroke-width: 1; stroke-dasharray: none; stroke-linecap: butt; stroke-dashoffset: 0; stroke-linejoin: miter; stroke-miterlimit: 4; is-custom-font: none; font-file-url: none; fill: rgb(255,87,34); fill-rule: nonzero; opacity: 1;" transform=" translate(-32, -32)" d="M 32 2 A 30 30 0 1 0 62 32 A 30.034 30.034 0 0 0 32 2 Z m 0 58 A 28 28 0 1 1 60 32 A 28.032 28.032 0 0 1 32 60 Z" stroke-linecap="round"/>
</g>
		<g transform="matrix(12.0075 0 0 12.0075 -1091.1418 28.37)" id="SvgjsG2743">
<path style="stroke: none; stroke-width: 1; stroke-dasharray: none; stroke-linecap: butt; stroke-dashoffset: 0; stroke-linejoin: miter; stroke-miterlimit: 4; is-custom-font: none; font-file-url: none; fill: rgb(255,87,34); fill-rule: nonzero; opacity: 1;" transform=" translate(-32, -32)" d="M 32 6 A 26 26 0 1 0 58 32 A 26.029 26.029 0 0 0 32 6 Z m 0 50 A 24 24 0 1 1 56 32 A 24.028 24.028 0 0 1 32 56 Z" stroke-linecap="round"/>
</g>
		<g transform="matrix(12.0075 0 0 12.0075 -1343.2994 28.3695)" id="SvgjsG2743">
<rect style="stroke: none; stroke-width: 1; stroke-dasharray: none; stroke-linecap: butt; stroke-dashoffset: 0; stroke-linejoin: miter; stroke-miterlimit: 4; is-custom-font: none; font-file-url: none; fill: rgb(255,87,34); fill-rule: nonzero; opacity: 1;" x="-2" y="-1" rx="0" ry="0" width="4" height="2"/>
</g>
		<g transform="matrix(12.0075 0 0 12.0075 -838.9854 28.3695)" id="SvgjsG2743">
<rect style="stroke: none; stroke-width: 1; stroke-dasharray: none; stroke-linecap: butt; stroke-dashoffset: 0; stroke-linejoin: miter; stroke-miterlimit: 4; is-custom-font: none; font-file-url: none; fill: rgb(255,87,34); fill-rule: nonzero; opacity: 1;" x="-2" y="-1" rx="0" ry="0" width="4" height="2"/>
</g>
		<g transform="matrix(10.3993 -6.0028 6.0028 10.3993 -1309.5195 154.4507)" id="SvgjsG2743">
<rect style="stroke: none; stroke-width: 1; stroke-dasharray: none; stroke-linecap: butt; stroke-dashoffset: 0; stroke-linejoin: miter; stroke-miterlimit: 4; is-custom-font: none; font-file-url: none; fill: rgb(255,87,34); fill-rule: nonzero; opacity: 1;" x="-2.0005" y="-1" rx="0" ry="0" width="4.001" height="2"/>
</g>
		<g transform="matrix(10.3993 -6.0028 6.0028 10.3993 -872.7702 -97.7087)" id="SvgjsG2743">
<rect style="stroke: none; stroke-width: 1; stroke-dasharray: none; stroke-linecap: butt; stroke-dashoffset: 0; stroke-linejoin: miter; stroke-miterlimit: 4; is-custom-font: none; font-file-url: none; fill: rgb(255,87,34); fill-rule: nonzero; opacity: 1;" x="-2.0005" y="-1" rx="0" ry="0" width="4.001" height="2"/>
</g>
		<g transform="matrix(6.0028 -10.3993 10.3993 6.0028 -1309.5178 -97.7017)" id="SvgjsG2743">
<rect style="stroke: none; stroke-width: 1; stroke-dasharray: none; stroke-linecap: butt; stroke-dashoffset: 0; stroke-linejoin: miter; stroke-miterlimit: 4; is-custom-font: none; font-file-url: none; fill: rgb(255,87,34); fill-rule: nonzero; opacity: 1;" x="-1" y="-2.0005" rx="0" ry="0" width="2" height="4.001"/>
</g>
		<g transform="matrix(6.0028 -10.3993 10.3993 6.0028 -872.7675 154.4659)" id="SvgjsG2743">
<rect style="stroke: none; stroke-width: 1; stroke-dasharray: none; stroke-linecap: butt; stroke-dashoffset: 0; stroke-linejoin: miter; stroke-miterlimit: 4; is-custom-font: none; font-file-url: none; fill: rgb(255,87,34); fill-rule: nonzero; opacity: 1;" x="-1" y="-2.0005" rx="0" ry="0" width="2" height="4.001"/>
</g>
		<g transform="matrix(10.3993 -6.0028 6.0028 10.3993 -1217.2186 -190.0097)" id="SvgjsG2743">
<rect style="stroke: none; stroke-width: 1; stroke-dasharray: none; stroke-linecap: butt; stroke-dashoffset: 0; stroke-linejoin: miter; stroke-miterlimit: 4; is-custom-font: none; font-file-url: none; fill: rgb(255,87,34); fill-rule: nonzero; opacity: 1;" x="-1" y="-2.0005" rx="0" ry="0" width="2" height="4.001"/>
</g>
		<g transform="matrix(12.0075 0 0 12.0075 -1091.1424 -223.7874)" id="SvgjsG2743">
<rect style="stroke: none; stroke-width: 1; stroke-dasharray: none; stroke-linecap: butt; stroke-dashoffset: 0; stroke-linejoin: miter; stroke-miterlimit: 4; is-custom-font: none; font-file-url: none; fill: rgb(255,87,34); fill-rule: nonzero; opacity: 1;" x="-1" y="-2" rx="0" ry="0" width="2" height="4"/>
</g>
		<g transform="matrix(6.0028 -10.3993 10.3993 6.0028 -965.0633 -190.0094)" id="SvgjsG2743">
<rect style="stroke: none; stroke-width: 1; stroke-dasharray: none; stroke-linecap: butt; stroke-dashoffset: 0; stroke-linejoin: miter; stroke-miterlimit: 4; is-custom-font: none; font-file-url: none; fill: rgb(255,87,34); fill-rule: nonzero; opacity: 1;" x="-2.0005" y="-1" rx="0" ry="0" width="4.001" height="2"/>
</g>
		<g transform="matrix(3.1078 -11.5984 11.5984 3.1078 -1340.5068 -38.4566)" id="SvgjsG2743">
<rect style="stroke: none; stroke-width: 1; stroke-dasharray: none; stroke-linecap: butt; stroke-dashoffset: 0; stroke-linejoin: miter; stroke-miterlimit: 4; is-custom-font: none; font-file-url: none; fill: rgb(255,87,34); fill-rule: nonzero; opacity: 1;" x="-1" y="-1.5" rx="0" ry="0" width="2" height="3"/>
</g>
		<g transform="matrix(3.1078 -11.5984 11.5984 3.1078 -841.7818 95.1974)" id="SvgjsG2743">
<rect style="stroke: none; stroke-width: 1; stroke-dasharray: none; stroke-linecap: butt; stroke-dashoffset: 0; stroke-linejoin: miter; stroke-miterlimit: 4; is-custom-font: none; font-file-url: none; fill: rgb(255,87,34); fill-rule: nonzero; opacity: 1;" x="-1" y="-1.5" rx="0" ry="0" width="2" height="3"/>
</g>
		<g transform="matrix(8.4906 -8.4906 8.4906 8.4906 -1273.6855 -154.1802)" id="SvgjsG2743">
<rect style="stroke: none; stroke-width: 1; stroke-dasharray: none; stroke-linecap: butt; stroke-dashoffset: 0; stroke-linejoin: miter; stroke-miterlimit: 4; is-custom-font: none; font-file-url: none; fill: rgb(255,87,34); fill-rule: nonzero; opacity: 1;" x="-1" y="-1.5" rx="0" ry="0" width="2" height="3"/>
</g>
		<g transform="matrix(11.5984 -3.1078 3.1078 11.5984 -1157.9692 -220.9854)" id="SvgjsG2743">
<rect style="stroke: none; stroke-width: 1; stroke-dasharray: none; stroke-linecap: butt; stroke-dashoffset: 0; stroke-linejoin: miter; stroke-miterlimit: 4; is-custom-font: none; font-file-url: none; fill: rgb(255,87,34); fill-rule: nonzero; opacity: 1;" x="-1" y="-1.5" rx="0" ry="0" width="2" height="3"/>
</g>
		<g transform="matrix(3.1078 -11.5984 11.5984 3.1078 -1024.3233 -220.9862)" id="SvgjsG2743">
<rect style="stroke: none; stroke-width: 1; stroke-dasharray: none; stroke-linecap: butt; stroke-dashoffset: 0; stroke-linejoin: miter; stroke-miterlimit: 4; is-custom-font: none; font-file-url: none; fill: rgb(255,87,34); fill-rule: nonzero; opacity: 1;" x="-1.5" y="-1" rx="0" ry="0" width="3" height="2"/>
</g>
		<g transform="matrix(8.4906 -8.4906 8.4906 8.4906 -908.5947 -154.1837)" id="SvgjsG2743">
<rect style="stroke: none; stroke-width: 1; stroke-dasharray: none; stroke-linecap: butt; stroke-dashoffset: 0; stroke-linejoin: miter; stroke-miterlimit: 4; is-custom-font: none; font-file-url: none; fill: rgb(255,87,34); fill-rule: nonzero; opacity: 1;" x="-1.5" y="-1" rx="0" ry="0" width="3" height="2"/>
</g>
		<g transform="matrix(11.5984 -3.1078 3.1078 11.5984 -841.7844 -38.4504)" id="SvgjsG2743">
<rect style="stroke: none; stroke-width: 1; stroke-dasharray: none; stroke-linecap: butt; stroke-dashoffset: 0; stroke-linejoin: miter; stroke-miterlimit: 4; is-custom-font: none; font-file-url: none; fill: rgb(255,87,34); fill-rule: nonzero; opacity: 1;" x="-1.5" y="-1" rx="0" ry="0" width="3" height="2"/>
</g>
		<g transform="matrix(11.5984 -3.1078 3.1078 11.5984 -1340.5042 95.1873)" id="SvgjsG2743">
<rect style="stroke: none; stroke-width: 1; stroke-dasharray: none; stroke-linecap: butt; stroke-dashoffset: 0; stroke-linejoin: miter; stroke-miterlimit: 4; is-custom-font: none; font-file-url: none; fill: rgb(255,87,34); fill-rule: nonzero; opacity: 1;" x="-1.5" y="-1" rx="0" ry="0" width="3" height="2"/>
</g>
		<g transform="matrix(12.0075 0 0 12.0075 -1091.1069 -19.7674)" id="SvgjsG2743">
<path style="stroke: none; stroke-width: 1; stroke-dasharray: none; stroke-linecap: butt; stroke-dashoffset: 0; stroke-linejoin: miter; stroke-miterlimit: 4; is-custom-font: none; font-file-url: none; fill: rgb(255,87,34); fill-rule: nonzero; opacity: 1;" transform=" translate(-32.0029, -27.9911)" d="M 48.465 36.249 A 17 17 0 1 0 17.275 40.5 a 1 1 0 0 0 1.731 -1 a 15 15 0 1 1 27.521 -3.748 a 1 1 0 1 0 1.938 0.5 Z" stroke-linecap="round"/>
</g>
		<g transform="matrix(12.0075 0 0 12.0075 -1025.1023 58.4127)" id="SvgjsG2743">
<path style="stroke: none; stroke-width: 1; stroke-dasharray: none; stroke-linecap: butt; stroke-dashoffset: 0; stroke-linejoin: miter; stroke-miterlimit: 4; is-custom-font: none; font-file-url: none; fill: rgb(255,87,34); fill-rule: nonzero; opacity: 1;" transform=" translate(-37.4999, -34.502)" d="M 35.633 30.226 a 0.931 0.931 0 0 0 -0.093 -0.05 a 3.989 3.989 0 1 0 -3.78 5.8 l 13.9 4.965 A 0.983 0.983 0 0 0 46 41 a 1 1 0 0 0 0.633 -1.774 Z M 30 32 a 2 2 0 1 1 2 2 A 2 2 0 0 1 30 32 Z m 4.725 2.912 a 3.976 3.976 0 0 0 1.134 -1.917 L 40.9 37.114 Z" stroke-linecap="round"/>
</g>
		<g transform="matrix(12.0075 0 0 12.0075 -1091.1422 208.4817)" id="SvgjsG2743">
<path style="stroke: none; stroke-width: 1; stroke-dasharray: none; stroke-linecap: butt; stroke-dashoffset: 0; stroke-linejoin: miter; stroke-miterlimit: 4; is-custom-font: none; font-file-url: none; fill: rgb(255,87,34); fill-rule: nonzero; opacity: 1;" transform=" translate(-32, -47)" d="M 36 42 H 28 a 5 5 0 0 0 0 10 h 8 a 5 5 0 0 0 0 -10 Z m 0 8 H 28 a 3 3 0 0 1 0 -6 h 8 a 3 3 0 0 1 0 6 Z" stroke-linecap="round"/>
</g>
		<g transform="matrix(12.0075 0 0 12.0075 -1127.1648 208.4817)" id="SvgjsG2743">
<path style="stroke: none; stroke-width: 1; stroke-dasharray: none; stroke-linecap: butt; stroke-dashoffset: 0; stroke-linejoin: miter; stroke-miterlimit: 4; is-custom-font: none; font-file-url: none; fill: rgb(255,87,34); fill-rule: nonzero; opacity: 1;" transform=" translate(-29, -47)" d="M 30 46 H 28 a 1 1 0 0 0 0 2 h 2 a 1 1 0 0 0 0 -2 Z" stroke-linecap="round"/>
</g>
		<g transform="matrix(12.0075 0 0 12.0075 -1055.12 208.4817)" id="SvgjsG2743">
<path style="stroke: none; stroke-width: 1; stroke-dasharray: none; stroke-linecap: butt; stroke-dashoffset: 0; stroke-linejoin: miter; stroke-miterlimit: 4; is-custom-font: none; font-file-url: none; fill: rgb(255,87,34); fill-rule: nonzero; opacity: 1;" transform=" translate(-35, -47)" d="M 36 46 H 34 a 1 1 0 0 0 0 2 h 2 a 1 1 0 0 0 0 -2 Z" stroke-linecap="round"/>
</g>
		<g transform="matrix(9.9209 0 0 9.9209 441.7543 52.8351)" id="SvgjsG2744">
<path style="stroke: none; stroke-width: 1; stroke-dasharray: none; stroke-linecap: butt; stroke-dashoffset: 0; stroke-linejoin: miter; stroke-miterlimit: 4; is-custom-font: none; font-file-url: none; fill: rgb(238,238,238); fill-rule: nonzero; opacity: 1;" transform=" translate(-108.3381, -14.106)" d="M 9.638 14.0628 l 7.9688 -5.3126 l 0 11.25 l -2.3477 0 l 0 -6.8631 l -5.621 3.7472 l -5.621 -3.7472 l 0 6.8631 l -2.3477 0 l 0 -11.25 z M 36.887 10.9512 l -13.59 0.000019531 l 0 2.1863 l 9.0642 0.03375 l -0.0086328 2.3478 l -9.0556 -0.03375 l 0 2.1782 l 13.59 0 l 0 2.3477 l -15.938 0 l 0 -11.407 l 15.938 0 l 0 2.3476 z M 54.49 17.65 l 0.040136 2.3242 l -1.1621 0.02002 c -0.015039 0.0002539 -1.0275 0.017129 -3.0076 0.017129 c -1.0032 0 -2.2546 -0.0044532 -3.7506 -0.017402 c -2.4132 -0.021054 -4.3428 -0.54212 -5.7348 -1.549 c -1.3835 -1.0007 -2.1454 -2.4562 -2.1454 -4.0986 c 0 -1.6413 0.76854 -3.1002 2.164 -4.1074 c 1.383 -0.99846 3.3616 -1.531 5.7218 -1.5402 c 4.441 -0.017129 6.719 0.00027344 6.7416 0.00041016 l 1.1622 0.0091602 l -0.01832 2.3246 l -1.1622 -0.0091602 c -0.022364 -0.0002539 -2.2892 -0.01752 -6.7144 -0.00039062 c -3.4358 0.01334 -5.5702 1.2866 -5.5702 3.3232 c 0 0.90194 0.39812 1.6473 1.1831 2.215 c 0.97936 0.70836 2.4984 1.0916 4.3926 1.1081 c 4.4144 0.038574 6.6758 0.00089844 6.698 0.00050782 z M 66.05539999999999 8.011 l 9.1766 12.19 l -2.9508 0 l -2.566 -3.3974 l -7.3197 0 l -2.5286 3.3974 l -2.9177 0 z M 64.1562 14.4556 l 3.7983 0 l -1.8992 -2.5322 z M 91.239 8.593 l 2.3476 0 l 0 11.25 l -13.59 -7.098 l 0 7.2556 l -2.3477 0 l 0 -11.25 l 13.59 7.098 l 0 -7.2556 z M 99.2538 20.02461 l -2.3246 0 l 0 -11.295 l 2.3246 0 l 0 11.295 z M 118.37 17.65 l 0.040136 2.3242 l -1.1621 0.02002 c -0.015039 0.0002539 -1.0275 0.017129 -3.0076 0.017129 c -1.0032 0 -2.2546 -0.0044532 -3.7506 -0.017402 c -2.4132 -0.021054 -4.3428 -0.54212 -5.7348 -1.549 c -1.3835 -1.0007 -2.1454 -2.4562 -2.1454 -4.0986 c 0 -1.6413 0.76854 -3.1002 2.164 -4.1074 c 1.383 -0.99846 3.3616 -1.531 5.7218 -1.5402 c 4.441 -0.017129 6.719 0.00027344 6.7416 0.00041016 l 1.1622 0.0091602 l -0.01832 2.3246 l -1.1622 -0.0091602 c -0.022364 -0.0002539 -2.2892 -0.01752 -6.7144 -0.00039062 c -3.4358 0.01334 -5.5702 1.2866 -5.5702 3.3232 c 0 0.90194 0.39812 1.6473 1.1831 2.215 c 0.97936 0.70836 2.4984 1.0916 4.3926 1.1081 c 4.4144 0.038574 6.6758 0.00089844 6.698 0.00050782 z M 129.9354 8.011 l 9.1766 12.19 l -2.9508 0 l -2.566 -3.3974 l -7.3197 0 l -2.5286 3.3974 l -2.9177 0 z M 128.0362 14.4556 l 3.7983 0 l -1.8992 -2.5322 z M 155.85699999999997 17.557 l 1.162 -0.017422 l 0.034786 2.3242 l -1.1621 0.017402 c -0.18088 0.002754 -0.38542 0.0058984 -0.6087 0.0058984 c -1.614 0 -4.2026 -0.16008 -5.8378 -1.7712 c -0.72798 -0.71726 -1.1865 -1.629 -1.3698 -2.72 l -4.2054 0 l -0.016602 4.4896 l -2.3246 -0.0086328 l 0.037402 -10.127 l 0 -1.1635 l 0.0043164 0 l 0 -0.0043164 l 1.1612 0.0043164 l 10.951 0 c 1.4728 0 3.6638 0.90678 3.6638 3.4048 c 0 2.4982 -2.0362 3.405 -3.4048 3.405 l -3.4826 0 c 0.12543 0.4252 0.32842 0.77924 0.61734 1.064 c 1.1685 1.151 3.608 1.1146 4.7804 1.0969 z M 143.89139999999998 13.0714 l 10.041 -0.000019531 c 0.10148 -0.0035352 0.40426 -0.041718 0.6538 -0.17971 c 0.21608 -0.11955 0.43686 -0.32006 0.43686 -0.90076 c 0 -0.46692 -0.15799 -0.71972 -0.56382 -0.90166 c -0.36882 -0.16531 -0.77152 -0.17865 -0.77532 -0.17865 l -9.7922 0 l 0 2.1608 z M 175.03699999999998 17.557 l 1.162 -0.017422 l 0.034786 2.3242 l -1.1621 0.017402 c -0.18088 0.002754 -0.38542 0.0058984 -0.6087 0.0058984 c -1.614 0 -4.2026 -0.16008 -5.8378 -1.7712 c -0.72798 -0.71726 -1.1865 -1.629 -1.3698 -2.72 l -4.2054 0 l -0.016602 4.4896 l -2.3246 -0.0086328 l 0.037402 -10.127 l 0 -1.1635 l 0.0043164 0 l 0 -0.0043164 l 1.1612 0.0043164 l 10.951 0 c 1.4728 0 3.6638 0.90678 3.6638 3.4048 c 0 2.4982 -2.0362 3.405 -3.4048 3.405 l -3.4826 0 c 0.12543 0.4252 0.32842 0.77924 0.61734 1.064 c 1.1685 1.151 3.608 1.1146 4.7804 1.0969 z M 163.07139999999998 13.0714 l 10.041 -0.000019531 c 0.10148 -0.0035352 0.40426 -0.041718 0.6538 -0.17971 c 0.21608 -0.11955 0.43686 -0.32006 0.43686 -0.90076 c 0 -0.46692 -0.15799 -0.71972 -0.56382 -0.90166 c -0.36882 -0.16531 -0.77152 -0.17865 -0.77532 -0.17865 l -9.7922 0 l 0 2.1608 z M 194.825 9.649 c 0.91776 0.9099 0.9102 2.226 0.89856 4.2182 c -0.00091796 0.14832 -0.0016992 0.302 -0.0023438 0.46118 c -0.0044532 1.1823 -0.0075976 2.0366 -0.13172 2.757 c -0.10568 0.6142 -0.34974 1.4995 -1.2436 2.0954 c -1.1321 0.75466 -2.8232 0.77168 -6.5282 0.8087 c -0.57862 0.0057618 -1.1122 0.010078 -1.6046 0.010078 c -2.9354 0 -4.411 -0.15537 -5.3538 -1.0922 c -0.98198 -0.9757 -0.97648 -2.4126 -0.96838 -4.5876 c 0.0090234 -2.4268 0.014512 -3.8916 1.2447 -4.801 c 1.0614 -0.7845 2.6028 -0.80516 5.9798 -0.85054 l 0.67396 -0.0092774 c 4.2088 -0.060156 5.9508 -0.085136 7.0354 0.99024 z M 193.391 13.854199999999999 c 0.006543 -1.1448 0.013457 -2.3288 -0.20864 -2.5488 c -0.27556 -0.27322 -1.5123 -0.33638 -3.1584 -0.33638 c -0.67736 0 -1.4242 0.010723 -2.2018 0.021836 l -0.67606 0.0092774 c -2.4194 0.032442 -4.1674 0.055976 -4.625 0.39406 c -0.2888 0.21346 -0.2935 1.4744 -0.29898 2.9346 c -0.0050976 1.3559 -0.0099414 2.6366 0.28016 2.9248 c 0.4554 0.45254 2.9138 0.42782 5.2914 0.40428 c 2.7302 -0.027206 4.7028 -0.046954 5.258 -0.4171 c 0.32686 -0.2179 0.33104 -1.3516 0.33692 -2.9208 c 0.00052734 -0.16074 0.0014453 -0.316 0.0023632 -0.46588 z M 201.858 11.0046 c -0.21816 0.12059 -0.44118 0.32306 -0.44118 0.90966 c 0 0.45724 0.14779 0.70718 0.52734 0.89108 c 0.38386 0.18598 0.81196 0.19957 0.83354 0.2001 l 8.5334 0.03336 c 1.4828 0 3.6956 0.9158 3.6956 3.4388 s -2.0564 3.4388 -3.4388 3.4388 l -12.499 0 l 0 -2.3477 l 12.488 0 c 0.1024 -0.0035352 0.40818 -0.04211 0.66022 -0.18152 c 0.21828 -0.12072 0.44128 -0.32318 0.44128 -0.90964 c 0 -0.45724 -0.14779 -0.70718 -0.52734 -0.89108 c -0.3827 -0.18547 -0.81038 -0.19947 -0.8343 -0.20012 l -8.5278 -0.03793 l 0 0.0045703 c -1.4875 0 -3.7004 -0.9158 -3.7004 -3.4388 s 2.0564 -3.4388 3.4388 -3.4388 l 12.499 0 l 0 2.3477 l -12.488 0 c -0.10229 0.0035352 -0.40834 0.04211 -0.6605 0.18152 z" stroke-linecap="round"/>
</g>
</g>
</g>
</svg>