<?xml version="1.0" encoding="UTF-8"?>
<svg xmlns="http://www.w3.org/2000/svg" xmlns:xlink="http://www.w3.org/1999/xlink" width="3162px" height="939px" viewBox="0 0 1582 470" version="1.1">
<g id="surface1">
<path style=" stroke:none;fill-rule:nonzero;fill:rgb(100%,34.117647%,13.333333%);fill-opacity:1;" d="M 245.113281 68.96875 C 145.574219 68.96875 64.886719 149.695312 64.886719 249.273438 C 64.886719 348.855469 145.574219 429.578125 245.113281 429.578125 C 344.648438 429.578125 425.335938 348.855469 425.335938 249.273438 C 425.226562 149.742188 344.601562 69.082031 245.113281 68.96875 Z M 245.113281 417.558594 C 152.210938 417.558594 76.902344 342.214844 76.902344 249.273438 C 76.902344 156.335938 152.210938 80.992188 245.113281 80.992188 C 338.011719 80.992188 413.324219 156.335938 413.324219 249.273438 C 413.214844 342.171875 337.96875 417.453125 245.113281 417.558594 Z M 245.113281 417.558594 "/>
<path style=" stroke:none;fill-rule:nonzero;fill:rgb(100%,34.117647%,13.333333%);fill-opacity:1;" d="M 245.113281 93.011719 C 158.847656 93.011719 88.914062 162.972656 88.914062 249.273438 C 88.914062 335.578125 158.847656 405.539062 245.113281 405.539062 C 331.375 405.539062 401.308594 335.578125 401.308594 249.273438 C 401.210938 163.011719 331.335938 93.105469 245.113281 93.011719 Z M 245.113281 393.519531 C 165.484375 393.519531 100.929688 328.9375 100.929688 249.273438 C 100.929688 169.609375 165.484375 105.03125 245.113281 105.03125 C 324.742188 105.03125 389.292969 169.609375 389.292969 249.273438 C 389.199219 328.898438 324.703125 393.425781 245.113281 393.519531 Z M 245.113281 393.519531 "/>
<path style=" stroke:none;fill-rule:nonzero;fill:rgb(100%,34.117647%,13.333333%);fill-opacity:1;" d="M 106.9375 243.265625 L 130.96875 243.265625 L 130.96875 255.285156 L 106.9375 255.285156 Z M 106.9375 243.265625 "/>
<path style=" stroke:none;fill-rule:nonzero;fill:rgb(100%,34.117647%,13.333333%);fill-opacity:1;" d="M 359.253906 243.265625 L 383.285156 243.265625 L 383.285156 255.285156 L 359.253906 255.285156 Z M 359.253906 243.265625 "/>
<path style=" stroke:none;fill-rule:nonzero;fill:rgb(100%,34.117647%,13.333333%);fill-opacity:1;" d="M 122.441406 313.1875 L 143.257812 301.167969 L 149.265625 311.578125 L 128.449219 323.597656 Z M 122.441406 313.1875 "/>
<path style=" stroke:none;fill-rule:nonzero;fill:rgb(100%,34.117647%,13.333333%);fill-opacity:1;" d="M 340.953125 186.972656 L 361.773438 174.953125 L 367.777344 185.363281 L 346.960938 197.382812 Z M 340.953125 186.972656 "/>
<path style=" stroke:none;fill-rule:nonzero;fill:rgb(100%,34.117647%,13.333333%);fill-opacity:1;" d="M 122.441406 185.367188 L 128.449219 174.957031 L 149.265625 186.976562 L 143.261719 197.386719 Z M 122.441406 185.367188 "/>
<path style=" stroke:none;fill-rule:nonzero;fill:rgb(100%,34.117647%,13.333333%);fill-opacity:1;" d="M 340.957031 311.585938 L 346.960938 301.175781 L 367.78125 313.195312 L 361.773438 323.605469 Z M 340.957031 311.585938 "/>
<path style=" stroke:none;fill-rule:nonzero;fill:rgb(100%,34.117647%,13.333333%);fill-opacity:1;" d="M 170.824219 132.558594 L 181.226562 126.550781 L 193.246094 147.378906 L 182.839844 153.386719 Z M 170.824219 132.558594 "/>
<path style=" stroke:none;fill-rule:nonzero;fill:rgb(100%,34.117647%,13.333333%);fill-opacity:1;" d="M 239.105469 111.042969 L 251.117188 111.042969 L 251.117188 135.082031 L 239.105469 135.082031 Z M 239.105469 111.042969 "/>
<path style=" stroke:none;fill-rule:nonzero;fill:rgb(100%,34.117647%,13.333333%);fill-opacity:1;" d="M 296.980469 147.378906 L 308.996094 126.550781 L 319.402344 132.558594 L 307.386719 153.386719 Z M 296.980469 147.378906 "/>
<path style=" stroke:none;fill-rule:nonzero;fill:rgb(100%,34.117647%,13.333333%);fill-opacity:1;" d="M 110.089844 219.296875 L 113.199219 207.6875 L 130.609375 212.355469 L 127.5 223.964844 Z M 110.089844 219.296875 "/>
<path style=" stroke:none;fill-rule:nonzero;fill:rgb(100%,34.117647%,13.333333%);fill-opacity:1;" d="M 359.613281 286.195312 L 362.722656 274.585938 L 380.128906 279.253906 L 377.019531 290.863281 Z M 359.613281 286.195312 "/>
<path style=" stroke:none;fill-rule:nonzero;fill:rgb(100%,34.117647%,13.333333%);fill-opacity:1;" d="M 143.164062 155.777344 L 151.660156 147.277344 L 164.402344 160.027344 L 155.90625 168.527344 Z M 143.164062 155.777344 "/>
<path style=" stroke:none;fill-rule:nonzero;fill:rgb(100%,34.117647%,13.333333%);fill-opacity:1;" d="M 203.542969 117.3125 L 215.148438 114.199219 L 219.8125 131.617188 L 208.207031 134.726562 Z M 203.542969 117.3125 "/>
<path style=" stroke:none;fill-rule:nonzero;fill:rgb(100%,34.117647%,13.333333%);fill-opacity:1;" d="M 270.40625 131.617188 L 275.070312 114.199219 L 286.675781 117.3125 L 282.011719 134.726562 Z M 270.40625 131.617188 "/>
<path style=" stroke:none;fill-rule:nonzero;fill:rgb(100%,34.117647%,13.333333%);fill-opacity:1;" d="M 325.824219 160.027344 L 338.566406 147.277344 L 347.0625 155.777344 L 334.320312 168.523438 Z M 325.824219 160.027344 "/>
<path style=" stroke:none;fill-rule:nonzero;fill:rgb(100%,34.117647%,13.333333%);fill-opacity:1;" d="M 359.609375 212.355469 L 377.019531 207.691406 L 380.128906 219.300781 L 362.71875 223.96875 Z M 359.609375 212.355469 "/>
<path style=" stroke:none;fill-rule:nonzero;fill:rgb(100%,34.117647%,13.333333%);fill-opacity:1;" d="M 110.09375 279.246094 L 127.5 274.582031 L 130.609375 286.191406 L 113.203125 290.859375 Z M 110.09375 279.246094 "/>
<path style=" stroke:none;fill-rule:nonzero;fill:rgb(100%,34.117647%,13.333333%);fill-opacity:1;" d="M 344.027344 274.8125 C 355.523438 230.15625 335.695312 183.328125 295.632812 160.523438 C 255.570312 137.71875 205.207031 144.585938 172.703125 177.285156 C 140.203125 209.984375 133.625 260.410156 156.652344 300.359375 C 158.359375 303.125 161.953125 304.027344 164.765625 302.402344 C 167.578125 300.777344 168.589844 297.210938 167.050781 294.351562 C 146.738281 259.097656 152.546875 214.605469 181.226562 185.757812 C 209.90625 156.90625 254.347656 150.851562 289.695312 170.976562 C 325.042969 191.105469 342.53125 232.421875 332.382812 271.824219 C 331.554688 275.039062 333.488281 278.320312 336.703125 279.152344 C 339.917969 279.980469 343.195312 278.046875 344.027344 274.828125 Z M 344.027344 274.8125 "/>
<path style=" stroke:none;fill-rule:nonzero;fill:rgb(100%,34.117647%,13.333333%);fill-opacity:1;" d="M 266.9375 238.613281 C 266.757812 238.5 266.570312 238.402344 266.378906 238.3125 C 261.089844 227.972656 249.152344 222.914062 238.050781 226.304688 C 226.949219 229.695312 219.871094 240.558594 221.253906 252.089844 C 222.636719 263.621094 232.082031 272.503906 243.667969 273.171875 L 327.175781 303.011719 C 327.828125 303.25 328.519531 303.367188 329.21875 303.367188 C 331.757812 303.363281 334.019531 301.769531 334.875 299.375 C 335.726562 296.984375 334.984375 294.3125 333.019531 292.703125 Z M 233.097656 249.273438 C 233.097656 242.636719 238.476562 237.253906 245.113281 237.253906 C 251.746094 237.253906 257.125 242.636719 257.125 249.273438 C 257.125 255.914062 251.746094 261.292969 245.113281 261.292969 C 238.476562 261.292969 233.097656 255.914062 233.097656 249.273438 Z M 261.480469 266.777344 C 264.804688 263.664062 267.167969 259.664062 268.292969 255.253906 L 298.578125 280.011719 Z M 261.480469 266.777344 "/>
<path style=" stroke:none;fill-rule:nonzero;fill:rgb(100%,34.117647%,13.333333%);fill-opacity:1;" d="M 269.140625 309.375 L 221.082031 309.375 C 204.492188 309.375 191.042969 322.828125 191.042969 339.425781 C 191.042969 356.023438 204.492188 369.476562 221.082031 369.476562 L 269.140625 369.476562 C 285.730469 369.476562 299.179688 356.023438 299.179688 339.425781 C 299.179688 322.828125 285.730469 309.375 269.140625 309.375 Z M 269.140625 357.457031 L 221.082031 357.457031 C 211.128906 357.457031 203.058594 349.382812 203.058594 339.425781 C 203.058594 329.46875 211.128906 321.394531 221.082031 321.394531 L 269.140625 321.394531 C 279.09375 321.394531 287.164062 329.46875 287.164062 339.425781 C 287.164062 349.382812 279.09375 357.457031 269.140625 357.457031 Z M 269.140625 357.457031 "/>
<path style=" stroke:none;fill-rule:nonzero;fill:rgb(100%,34.117647%,13.333333%);fill-opacity:1;" d="M 233.097656 333.417969 L 221.082031 333.417969 C 217.761719 333.417969 215.074219 336.105469 215.074219 339.425781 C 215.074219 342.746094 217.761719 345.4375 221.082031 345.4375 L 233.097656 345.4375 C 236.414062 345.4375 239.105469 342.746094 239.105469 339.425781 C 239.105469 336.105469 236.414062 333.417969 233.097656 333.417969 Z M 233.097656 333.417969 "/>
<path style=" stroke:none;fill-rule:nonzero;fill:rgb(100%,34.117647%,13.333333%);fill-opacity:1;" d="M 269.140625 333.417969 L 257.125 333.417969 C 253.808594 333.417969 251.117188 336.105469 251.117188 339.425781 C 251.117188 342.746094 253.808594 345.4375 257.125 345.4375 L 269.140625 345.4375 C 272.460938 345.4375 275.148438 342.746094 275.148438 339.425781 C 275.148438 336.105469 272.460938 333.417969 269.140625 333.417969 Z M 269.140625 333.417969 "/>
<path style=" stroke:none;fill-rule:nonzero;fill:rgb(93.333333%,93.333333%,93.333333%);fill-opacity:1;" d="M 522.136719 261.304688 L 561.691406 234.925781 L 561.691406 290.789062 L 550.039062 290.789062 L 550.039062 256.710938 L 522.140625 275.316406 L 494.238281 256.710938 L 494.238281 290.789062 L 482.585938 290.789062 L 482.585938 234.925781 Z M 657.390625 245.855469 L 589.9375 245.855469 L 589.9375 256.710938 L 634.925781 256.878906 L 634.882812 268.539062 L 589.9375 268.371094 L 589.9375 279.1875 L 657.390625 279.1875 L 657.390625 290.84375 L 578.28125 290.84375 L 578.28125 234.199219 L 657.390625 234.199219 L 657.390625 245.859375 Z M 744.765625 279.117188 L 744.964844 290.660156 L 739.195312 290.757812 C 739.121094 290.761719 734.09375 290.84375 724.265625 290.84375 C 719.289062 290.84375 713.078125 290.824219 705.652344 290.757812 C 693.671875 290.652344 684.09375 288.066406 677.1875 283.066406 C 670.320312 278.097656 666.535156 270.871094 666.535156 262.714844 C 666.535156 254.5625 670.351562 247.320312 677.277344 242.316406 C 684.144531 237.359375 693.964844 234.714844 705.679688 234.667969 C 727.722656 234.585938 739.027344 234.671875 739.140625 234.671875 L 744.910156 234.71875 L 744.820312 246.261719 L 739.050781 246.214844 C 738.9375 246.214844 727.6875 246.128906 705.722656 246.210938 C 688.667969 246.277344 678.074219 252.601562 678.074219 262.714844 C 678.074219 267.195312 680.050781 270.894531 683.945312 273.714844 C 688.808594 277.230469 696.347656 279.132812 705.75 279.214844 C 727.660156 279.40625 738.886719 279.222656 738.996094 279.21875 Z M 802.171875 231.253906 L 847.71875 291.785156 L 833.074219 291.785156 L 820.335938 274.914062 L 784.003906 274.914062 L 771.453125 291.785156 L 756.972656 291.785156 Z M 792.742188 263.257812 L 811.597656 263.257812 L 802.171875 250.683594 Z M 927.171875 234.144531 L 938.824219 234.144531 L 938.824219 290.007812 L 871.367188 254.761719 L 871.367188 290.792969 L 859.714844 290.792969 L 859.714844 234.925781 L 927.171875 270.171875 Z M 966.953125 290.910156 L 955.414062 290.910156 L 955.414062 234.824219 L 966.953125 234.824219 Z M 1061.839844 279.117188 L 1062.039062 290.660156 L 1056.269531 290.757812 C 1056.195312 290.761719 1051.167969 290.84375 1041.339844 290.84375 C 1036.359375 290.84375 1030.148438 290.824219 1022.722656 290.757812 C 1010.746094 290.652344 1001.167969 288.066406 994.257812 283.066406 C 987.390625 278.097656 983.609375 270.871094 983.609375 262.714844 C 983.609375 254.5625 987.425781 247.320312 994.351562 242.316406 C 1001.214844 237.359375 1011.035156 234.714844 1022.753906 234.667969 C 1044.796875 234.585938 1056.101562 234.671875 1056.214844 234.671875 L 1061.984375 234.71875 L 1061.890625 246.261719 L 1056.125 246.214844 C 1056.011719 246.214844 1044.761719 246.128906 1022.796875 246.210938 C 1005.742188 246.277344 995.148438 252.601562 995.148438 262.714844 C 995.148438 267.195312 997.125 270.894531 1001.019531 273.714844 C 1005.882812 277.230469 1013.421875 279.132812 1022.824219 279.214844 C 1044.734375 279.40625 1055.960938 279.222656 1056.070312 279.21875 Z M 1119.242188 231.253906 L 1164.792969 291.785156 L 1150.144531 291.785156 L 1137.410156 274.914062 L 1101.078125 274.914062 L 1088.527344 291.785156 L 1074.042969 291.785156 Z M 1109.816406 263.257812 L 1128.671875 263.257812 L 1119.242188 250.683594 Z M 1247.90625 278.65625 L 1253.675781 278.570312 L 1253.847656 290.113281 L 1248.078125 290.199219 C 1247.183594 290.210938 1246.167969 290.226562 1245.058594 290.226562 C 1237.046875 290.226562 1224.199219 289.433594 1216.082031 281.433594 C 1212.46875 277.871094 1210.191406 273.34375 1209.28125 267.925781 L 1188.410156 267.925781 L 1188.328125 290.21875 L 1176.789062 290.175781 L 1176.972656 239.890625 L 1176.972656 234.109375 L 1176.996094 234.109375 L 1176.996094 234.089844 L 1182.757812 234.109375 L 1237.117188 234.109375 C 1244.425781 234.109375 1255.300781 238.613281 1255.300781 251.019531 C 1255.300781 263.425781 1245.195312 267.925781 1238.402344 267.925781 L 1221.113281 267.925781 C 1221.738281 270.039062 1222.746094 271.796875 1224.179688 273.210938 C 1229.980469 278.925781 1242.085938 278.746094 1247.90625 278.65625 Z M 1188.515625 256.382812 L 1238.355469 256.382812 C 1238.859375 256.363281 1240.363281 256.175781 1241.601562 255.492188 C 1242.671875 254.898438 1243.769531 253.902344 1243.769531 251.015625 C 1243.769531 248.699219 1242.984375 247.445312 1240.96875 246.539062 C 1239.140625 245.71875 1237.140625 245.652344 1237.121094 245.652344 L 1188.515625 245.652344 Z M 1343.109375 278.65625 L 1348.878906 278.570312 L 1349.050781 290.113281 L 1343.28125 290.199219 C 1342.382812 290.210938 1341.367188 290.226562 1340.261719 290.226562 C 1332.25 290.226562 1319.398438 289.433594 1311.285156 281.433594 C 1307.671875 277.871094 1305.394531 273.34375 1304.484375 267.925781 L 1283.609375 267.925781 L 1283.527344 290.21875 L 1271.988281 290.175781 L 1272.175781 239.890625 L 1272.175781 234.109375 L 1272.195312 234.109375 L 1272.195312 234.089844 L 1277.960938 234.109375 L 1332.316406 234.109375 C 1339.628906 234.109375 1350.503906 238.613281 1350.503906 251.019531 C 1350.503906 263.425781 1340.394531 267.925781 1333.601562 267.925781 L 1316.316406 267.925781 C 1316.9375 270.039062 1317.945312 271.796875 1319.378906 273.210938 C 1325.179688 278.925781 1337.289062 278.746094 1343.109375 278.65625 Z M 1283.71875 256.382812 L 1333.554688 256.382812 C 1334.058594 256.363281 1335.5625 256.175781 1336.800781 255.492188 C 1337.875 254.898438 1338.96875 253.902344 1338.96875 251.015625 C 1338.96875 248.699219 1338.1875 247.445312 1336.171875 246.539062 C 1334.339844 245.71875 1332.34375 245.652344 1332.324219 245.652344 L 1283.71875 245.652344 Z M 1441.328125 239.386719 C 1445.882812 243.90625 1445.847656 250.441406 1445.789062 260.335938 C 1445.785156 261.070312 1445.78125 261.835938 1445.777344 262.625 C 1445.753906 268.496094 1445.738281 272.738281 1445.125 276.316406 C 1444.597656 279.363281 1443.386719 283.761719 1438.949219 286.71875 C 1433.332031 290.46875 1424.9375 290.550781 1406.546875 290.734375 C 1403.675781 290.765625 1401.027344 290.785156 1398.582031 290.785156 C 1384.011719 290.785156 1376.6875 290.015625 1372.007812 285.363281 C 1367.132812 280.515625 1367.160156 273.382812 1367.203125 262.582031 C 1367.246094 250.53125 1367.273438 243.257812 1373.378906 238.742188 C 1378.648438 234.847656 1386.300781 234.742188 1403.0625 234.519531 L 1406.40625 234.472656 C 1427.296875 234.171875 1435.945312 234.050781 1441.328125 239.390625 Z M 1434.210938 260.269531 C 1434.242188 254.585938 1434.277344 248.707031 1433.175781 247.613281 C 1431.808594 246.257812 1425.667969 245.941406 1417.5 245.941406 C 1414.136719 245.941406 1410.429688 245.996094 1406.570312 246.050781 L 1403.214844 246.097656 C 1391.203125 246.257812 1382.527344 246.375 1380.257812 248.054688 C 1378.824219 249.113281 1378.800781 255.375 1378.773438 262.625 C 1378.746094 269.359375 1378.722656 275.71875 1380.164062 277.152344 C 1382.425781 279.398438 1394.625 279.273438 1406.429688 279.15625 C 1419.980469 279.023438 1429.769531 278.925781 1432.527344 277.085938 C 1434.148438 276.003906 1434.167969 270.375 1434.199219 262.582031 C 1434.203125 261.785156 1434.207031 261.015625 1434.210938 260.269531 Z M 1476.238281 246.121094 C 1475.15625 246.71875 1474.046875 247.722656 1474.046875 250.636719 C 1474.046875 252.90625 1474.78125 254.148438 1476.664062 255.0625 C 1478.570312 255.984375 1480.695312 256.050781 1480.800781 256.054688 L 1523.160156 256.222656 C 1530.519531 256.222656 1541.503906 260.769531 1541.503906 273.296875 C 1541.503906 285.824219 1531.296875 290.375 1524.433594 290.375 L 1462.394531 290.375 L 1462.394531 278.714844 L 1524.378906 278.714844 C 1524.886719 278.699219 1526.40625 278.507812 1527.65625 277.8125 C 1528.738281 277.214844 1529.847656 276.207031 1529.847656 273.296875 C 1529.847656 271.027344 1529.113281 269.785156 1527.230469 268.871094 C 1525.328125 267.949219 1523.207031 267.882812 1523.085938 267.878906 L 1480.757812 267.691406 L 1480.757812 267.710938 C 1473.375 267.710938 1462.390625 263.164062 1462.390625 250.636719 C 1462.390625 238.109375 1472.597656 233.558594 1479.460938 233.558594 L 1541.5 233.558594 L 1541.5 245.21875 L 1479.515625 245.21875 C 1479.007812 245.234375 1477.488281 245.425781 1476.238281 246.121094 Z M 1476.238281 246.121094 "/>
</g>
</svg>
