
        <svg xmlns="http://www.w3.org/2000/svg" xmlns:xlink="http://www.w3.org/1999/xlink" version="1.1" width="3162.111047853983" height="939.2984628517822" viewBox="0 0 3162.111047853983 939.2984628517822">
			
			<g transform="scale(8.10555239269914) translate(10, 10)">
				<defs id="SvgjsDefs2742"/><g id="SvgjsG2743" featureKey="HKaMnE-0" transform="matrix(1.4813889569036451,0,0,1.4813889569036451,3.0372220861927097,4.03722208619271)" fill="#000"><title xmlns="http://www.w3.org/2000/svg">racing-car-meter-speeding</title><path xmlns="http://www.w3.org/2000/svg" d="M32,2A30,30,0,1,0,62,32,30.034,30.034,0,0,0,32,2Zm0,58A28,28,0,1,1,60,32,28.032,28.032,0,0,1,32,60Z"/><path xmlns="http://www.w3.org/2000/svg" d="M32,6A26,26,0,1,0,58,32,26.029,26.029,0,0,0,32,6Zm0,50A24,24,0,1,1,56,32,24.028,24.028,0,0,1,32,56Z"/><rect xmlns="http://www.w3.org/2000/svg" x="9" y="31" width="4" height="2"/><rect xmlns="http://www.w3.org/2000/svg" x="51" y="31" width="4" height="2"/><rect xmlns="http://www.w3.org/2000/svg" x="11.813" y="41.5" width="4.001" height="2" transform="translate(-19.397 12.598) rotate(-29.995)"/><rect xmlns="http://www.w3.org/2000/svg" x="48.186" y="20.5" width="4.001" height="2" transform="translate(-4.027 27.969) rotate(-29.995)"/><rect xmlns="http://www.w3.org/2000/svg" x="12.813" y="19.5" width="2" height="4.001" transform="translate(-11.713 22.715) rotate(-60.005)"/><rect xmlns="http://www.w3.org/2000/svg" x="49.186" y="40.5" width="2" height="4.001" transform="translate(-11.711 64.719) rotate(-60.005)"/><rect xmlns="http://www.w3.org/2000/svg" x="20.5" y="11.813" width="2" height="4.001" transform="translate(-4.026 12.598) rotate(-29.995)"/><rect xmlns="http://www.w3.org/2000/svg" x="31" y="9" width="2" height="4"/><rect xmlns="http://www.w3.org/2000/svg" x="40.5" y="12.813" width="4.001" height="2" transform="translate(9.29 43.716) rotate(-60.005)"/><rect xmlns="http://www.w3.org/2000/svg" x="10.233" y="24.935" width="2" height="3" transform="translate(-17.209 30.443) rotate(-75)"/><rect xmlns="http://www.w3.org/2000/svg" x="51.767" y="36.065" width="2" height="3" transform="translate(2.825 78.812) rotate(-75)"/><rect xmlns="http://www.w3.org/2000/svg" x="15.797" y="15.297" width="2" height="3" transform="translate(-6.957 16.797) rotate(-45)"/><rect xmlns="http://www.w3.org/2000/svg" x="25.435" y="9.733" width="2" height="3" transform="translate(-2.007 7.225) rotate(-15)"/><rect xmlns="http://www.w3.org/2000/svg" x="36.065" y="10.233" width="3" height="2" transform="translate(16.992 44.611) rotate(-75)"/><rect xmlns="http://www.w3.org/2000/svg" x="45.703" y="15.797" width="3" height="2" transform="translate(1.948 38.297) rotate(-45)"/><rect xmlns="http://www.w3.org/2000/svg" x="51.267" y="25.435" width="3" height="2" transform="translate(-5.044 14.558) rotate(-15)"/><rect xmlns="http://www.w3.org/2000/svg" x="9.733" y="36.565" width="3" height="2" transform="translate(-9.34 4.187) rotate(-15)"/><path xmlns="http://www.w3.org/2000/svg" d="M48.465,36.249A17,17,0,1,0,17.275,40.5a1,1,0,0,0,1.731-1,15,15,0,1,1,27.521-3.748,1,1,0,1,0,1.938.5Z"/><path xmlns="http://www.w3.org/2000/svg" d="M35.633,30.226a.931.931,0,0,0-.093-.05,3.989,3.989,0,1,0-3.78,5.8l13.9,4.965A.983.983,0,0,0,46,41a1,1,0,0,0,.633-1.774ZM30,32a2,2,0,1,1,2,2A2,2,0,0,1,30,32Zm4.725,2.912a3.976,3.976,0,0,0,1.134-1.917L40.9,37.114Z"/><path xmlns="http://www.w3.org/2000/svg" d="M36,42H28a5,5,0,0,0,0,10h8a5,5,0,0,0,0-10Zm0,8H28a3,3,0,0,1,0-6h8a3,3,0,0,1,0,6Z"/><path xmlns="http://www.w3.org/2000/svg" d="M30,46H28a1,1,0,0,0,0,2h2a1,1,0,0,0,0-2Z"/><path xmlns="http://www.w3.org/2000/svg" d="M36,46H34a1,1,0,0,0,0,2h2a1,1,0,0,0,0-2Z"/></g><g id="SvgjsG2744" featureKey="J3GnXt-0" transform="matrix(1.2239615359245348,0,0,1.2239615359245348,106.95671893222391,37.19484452790814)" fill="#000"><path d="M9.638 14.0628 l7.9688 -5.3126 l0 11.25 l-2.3477 0 l0 -6.8631 l-5.621 3.7472 l-5.621 -3.7472 l0 6.8631 l-2.3477 0 l0 -11.25 z M36.887 10.9512 l-13.59 0.000019531 l0 2.1863 l9.0642 0.03375 l-0.0086328 2.3478 l-9.0556 -0.03375 l0 2.1782 l13.59 0 l0 2.3477 l-15.938 0 l0 -11.407 l15.938 0 l0 2.3476 z M54.49 17.65 l0.040136 2.3242 l-1.1621 0.02002 c-0.015039 0.0002539 -1.0275 0.017129 -3.0076 0.017129 c-1.0032 0 -2.2546 -0.0044532 -3.7506 -0.017402 c-2.4132 -0.021054 -4.3428 -0.54212 -5.7348 -1.549 c-1.3835 -1.0007 -2.1454 -2.4562 -2.1454 -4.0986 c0 -1.6413 0.76854 -3.1002 2.164 -4.1074 c1.383 -0.99846 3.3616 -1.531 5.7218 -1.5402 c4.441 -0.017129 6.719 0.00027344 6.7416 0.00041016 l1.1622 0.0091602 l-0.01832 2.3246 l-1.1622 -0.0091602 c-0.022364 -0.0002539 -2.2892 -0.01752 -6.7144 -0.00039062 c-3.4358 0.01334 -5.5702 1.2866 -5.5702 3.3232 c0 0.90194 0.39812 1.6473 1.1831 2.215 c0.97936 0.70836 2.4984 1.0916 4.3926 1.1081 c4.4144 0.038574 6.6758 0.00089844 6.698 0.00050782 z M66.05539999999999 8.011 l9.1766 12.19 l-2.9508 0 l-2.566 -3.3974 l-7.3197 0 l-2.5286 3.3974 l-2.9177 0 z M64.1562 14.4556 l3.7983 0 l-1.8992 -2.5322 z M91.239 8.593 l2.3476 0 l0 11.25 l-13.59 -7.098 l0 7.2556 l-2.3477 0 l0 -11.25 l13.59 7.098 l0 -7.2556 z M99.2538 20.02461 l-2.3246 0 l0 -11.295 l2.3246 0 l0 11.295 z M118.37 17.65 l0.040136 2.3242 l-1.1621 0.02002 c-0.015039 0.0002539 -1.0275 0.017129 -3.0076 0.017129 c-1.0032 0 -2.2546 -0.0044532 -3.7506 -0.017402 c-2.4132 -0.021054 -4.3428 -0.54212 -5.7348 -1.549 c-1.3835 -1.0007 -2.1454 -2.4562 -2.1454 -4.0986 c0 -1.6413 0.76854 -3.1002 2.164 -4.1074 c1.383 -0.99846 3.3616 -1.531 5.7218 -1.5402 c4.441 -0.017129 6.719 0.00027344 6.7416 0.00041016 l1.1622 0.0091602 l-0.01832 2.3246 l-1.1622 -0.0091602 c-0.022364 -0.0002539 -2.2892 -0.01752 -6.7144 -0.00039062 c-3.4358 0.01334 -5.5702 1.2866 -5.5702 3.3232 c0 0.90194 0.39812 1.6473 1.1831 2.215 c0.97936 0.70836 2.4984 1.0916 4.3926 1.1081 c4.4144 0.038574 6.6758 0.00089844 6.698 0.00050782 z M129.9354 8.011 l9.1766 12.19 l-2.9508 0 l-2.566 -3.3974 l-7.3197 0 l-2.5286 3.3974 l-2.9177 0 z M128.0362 14.4556 l3.7983 0 l-1.8992 -2.5322 z M155.85699999999997 17.557 l1.162 -0.017422 l0.034786 2.3242 l-1.1621 0.017402 c-0.18088 0.002754 -0.38542 0.0058984 -0.6087 0.0058984 c-1.614 0 -4.2026 -0.16008 -5.8378 -1.7712 c-0.72798 -0.71726 -1.1865 -1.629 -1.3698 -2.72 l-4.2054 0 l-0.016602 4.4896 l-2.3246 -0.0086328 l0.037402 -10.127 l0 -1.1635 l0.0043164 0 l0 -0.0043164 l1.1612 0.0043164 l10.951 0 c1.4728 0 3.6638 0.90678 3.6638 3.4048 c0 2.4982 -2.0362 3.405 -3.4048 3.405 l-3.4826 0 c0.12543 0.4252 0.32842 0.77924 0.61734 1.064 c1.1685 1.151 3.608 1.1146 4.7804 1.0969 z M143.89139999999998 13.0714 l10.041 -0.000019531 c0.10148 -0.0035352 0.40426 -0.041718 0.6538 -0.17971 c0.21608 -0.11955 0.43686 -0.32006 0.43686 -0.90076 c0 -0.46692 -0.15799 -0.71972 -0.56382 -0.90166 c-0.36882 -0.16531 -0.77152 -0.17865 -0.77532 -0.17865 l-9.7922 0 l0 2.1608 z M175.03699999999998 17.557 l1.162 -0.017422 l0.034786 2.3242 l-1.1621 0.017402 c-0.18088 0.002754 -0.38542 0.0058984 -0.6087 0.0058984 c-1.614 0 -4.2026 -0.16008 -5.8378 -1.7712 c-0.72798 -0.71726 -1.1865 -1.629 -1.3698 -2.72 l-4.2054 0 l-0.016602 4.4896 l-2.3246 -0.0086328 l0.037402 -10.127 l0 -1.1635 l0.0043164 0 l0 -0.0043164 l1.1612 0.0043164 l10.951 0 c1.4728 0 3.6638 0.90678 3.6638 3.4048 c0 2.4982 -2.0362 3.405 -3.4048 3.405 l-3.4826 0 c0.12543 0.4252 0.32842 0.77924 0.61734 1.064 c1.1685 1.151 3.608 1.1146 4.7804 1.0969 z M163.07139999999998 13.0714 l10.041 -0.000019531 c0.10148 -0.0035352 0.40426 -0.041718 0.6538 -0.17971 c0.21608 -0.11955 0.43686 -0.32006 0.43686 -0.90076 c0 -0.46692 -0.15799 -0.71972 -0.56382 -0.90166 c-0.36882 -0.16531 -0.77152 -0.17865 -0.77532 -0.17865 l-9.7922 0 l0 2.1608 z M194.825 9.649 c0.91776 0.9099 0.9102 2.226 0.89856 4.2182 c-0.00091796 0.14832 -0.0016992 0.302 -0.0023438 0.46118 c-0.0044532 1.1823 -0.0075976 2.0366 -0.13172 2.757 c-0.10568 0.6142 -0.34974 1.4995 -1.2436 2.0954 c-1.1321 0.75466 -2.8232 0.77168 -6.5282 0.8087 c-0.57862 0.0057618 -1.1122 0.010078 -1.6046 0.010078 c-2.9354 0 -4.411 -0.15537 -5.3538 -1.0922 c-0.98198 -0.9757 -0.97648 -2.4126 -0.96838 -4.5876 c0.0090234 -2.4268 0.014512 -3.8916 1.2447 -4.801 c1.0614 -0.7845 2.6028 -0.80516 5.9798 -0.85054 l0.67396 -0.0092774 c4.2088 -0.060156 5.9508 -0.085136 7.0354 0.99024 z M193.391 13.854199999999999 c0.006543 -1.1448 0.013457 -2.3288 -0.20864 -2.5488 c-0.27556 -0.27322 -1.5123 -0.33638 -3.1584 -0.33638 c-0.67736 0 -1.4242 0.010723 -2.2018 0.021836 l-0.67606 0.0092774 c-2.4194 0.032442 -4.1674 0.055976 -4.625 0.39406 c-0.2888 0.21346 -0.2935 1.4744 -0.29898 2.9346 c-0.0050976 1.3559 -0.0099414 2.6366 0.28016 2.9248 c0.4554 0.45254 2.9138 0.42782 5.2914 0.40428 c2.7302 -0.027206 4.7028 -0.046954 5.258 -0.4171 c0.32686 -0.2179 0.33104 -1.3516 0.33692 -2.9208 c0.00052734 -0.16074 0.0014453 -0.316 0.0023632 -0.46588 z M201.858 11.0046 c-0.21816 0.12059 -0.44118 0.32306 -0.44118 0.90966 c0 0.45724 0.14779 0.70718 0.52734 0.89108 c0.38386 0.18598 0.81196 0.19957 0.83354 0.2001 l8.5334 0.03336 c1.4828 0 3.6956 0.9158 3.6956 3.4388 s-2.0564 3.4388 -3.4388 3.4388 l-12.499 0 l0 -2.3477 l12.488 0 c0.1024 -0.0035352 0.40818 -0.04211 0.66022 -0.18152 c0.21828 -0.12072 0.44128 -0.32318 0.44128 -0.90964 c0 -0.45724 -0.14779 -0.70718 -0.52734 -0.89108 c-0.3827 -0.18547 -0.81038 -0.19947 -0.8343 -0.20012 l-8.5278 -0.03793 l0 0.0045703 c-1.4875 0 -3.7004 -0.9158 -3.7004 -3.4388 s2.0564 -3.4388 3.4388 -3.4388 l12.499 0 l0 2.3477 l-12.488 0 c-0.10229 0.0035352 -0.40834 0.04211 -0.6605 0.18152 z"/></g>
			</g>
		</svg>
	